<?xml version="1.0" standalone="no"?>
<!DOCTYPE svg PUBLIC "-//W3C//DTD SVG 20010904//EN"
"http://www.w3.org/TR/2001/REC-SVG-20010904/DTD/svg10.dtd">
<svg version="1.0" xmlns="http://www.w3.org/2000/svg"
width="1280.000000pt" height="805.000000pt" viewBox="0 0 1280.000000 805.000000"
preserveAspectRatio="xMidYMid meet">
<metadata>
Created by potrace 1.15, written by Peter Selinger 2001-2017
</metadata>
<g transform="translate(0.000000,805.000000) scale(0.100000,-0.100000)"
fill="#ff9800" stroke="none">
<path d="M4216 7999 c-31 -105 -39 -217 -32 -474 3 -137 8 -817 11 -1510 4
-1112 7 -1266 21 -1315 53 -181 185 -335 519 -603 94 -76 216 -174 271 -220
56 -45 211 -161 344 -257 282 -203 469 -352 557 -442 l62 -63 -24 -60 c-36
-87 -75 -136 -136 -168 -111 -59 -206 -25 -472 166 -370 268 -627 417 -899
523 -208 81 -292 38 -592 -305 -91 -104 -184 -203 -208 -222 -24 -18 -122
-110 -218 -204 -152 -149 -186 -177 -253 -210 -66 -33 -88 -39 -141 -39 -116
0 -193 54 -342 241 -116 144 -296 319 -593 578 -146 126 -321 283 -390 349
-69 67 -285 262 -479 435 -230 205 -349 318 -344 325 5 6 31 40 57 76 27 36
114 141 194 235 217 255 303 376 385 545 74 151 145 194 255 155 52 -18 104
-54 261 -179 87 -69 151 -111 210 -138 162 -74 189 -95 226 -173 57 -121 2
-295 -110 -346 -50 -23 -85 -24 -134 -3 -50 20 -85 55 -143 140 -55 82 -86
109 -140 125 -79 24 -177 -43 -231 -157 -52 -112 -55 -233 -6 -330 29 -59 71
-95 161 -140 83 -42 146 -86 306 -212 142 -113 214 -152 290 -159 95 -9 149
28 238 167 66 101 100 142 267 320 157 166 226 257 273 356 32 67 37 86 37
153 0 58 -6 89 -24 131 -85 199 -230 339 -570 553 -74 47 -180 114 -235 149
-84 53 -136 99 -325 288 -224 225 -297 285 -394 323 -62 25 -174 27 -226 4
-57 -25 -244 -238 -615 -702 -317 -396 -393 -484 -507 -586 -184 -165 -313
-301 -343 -363 -80 -164 -26 -276 235 -476 118 -91 287 -262 479 -485 256
-297 341 -385 525 -543 295 -253 573 -536 901 -917 76 -88 200 -223 274 -300
148 -152 218 -239 261 -325 65 -131 73 -195 49 -425 -37 -354 -88 -634 -159
-879 -43 -148 -44 -177 -9 -248 44 -87 166 -140 272 -118 118 24 178 100 184
233 4 89 35 209 148 562 40 127 85 270 99 319 14 49 27 91 30 93 5 6 98 -141
135 -215 43 -85 108 -244 176 -432 130 -359 166 -442 211 -486 63 -62 137 -88
254 -88 82 -1 103 3 151 25 33 16 66 40 79 59 44 62 25 158 -49 242 -22 26
-36 62 -61 158 -17 69 -44 170 -60 225 -58 198 -91 352 -97 447 l-6 97 34 -11
c19 -6 167 -14 339 -18 194 -5 320 -12 345 -20 111 -34 187 -97 229 -190 41
-90 48 -169 40 -440 -8 -283 1 -362 47 -458 37 -76 86 -115 165 -133 68 -15
120 -2 173 46 87 79 120 192 151 523 21 227 43 339 79 411 65 126 127 69 209
-189 22 -69 58 -184 81 -255 23 -72 57 -162 76 -200 19 -38 35 -74 35 -79 0
-33 25 -91 52 -122 50 -56 101 -78 188 -78 112 -1 205 48 247 129 32 60 10
175 -44 237 -8 9 -26 61 -38 116 -13 54 -56 179 -95 276 -105 263 -123 330
-124 456 -1 97 1 110 30 170 17 36 48 85 70 110 21 25 114 151 206 280 177
248 278 380 603 792 253 320 422 523 550 663 56 61 121 137 145 170 65 89 184
235 357 439 242 283 382 477 468 646 32 64 33 69 45 274 9 147 11 354 6 700
-27 2006 -24 1908 -72 2364 -8 77 -22 87 -110 79 -82 -6 -182 -55 -384 -187
-191 -126 -237 -149 -403 -207 -324 -112 -581 -228 -900 -406 -246 -138 -407
-194 -582 -204 -165 -8 -299 31 -439 131 -34 24 -191 123 -350 220 -158 98
-423 263 -589 368 -354 223 -421 262 -557 323 -57 25 -104 45 -106 45 -2 0
-10 -23 -18 -51z m3608 -1755 c191 -49 354 -218 401 -415 31 -132 16 -231 -55
-377 -83 -168 -199 -260 -375 -297 -204 -43 -383 4 -516 135 -111 110 -167
231 -176 385 -15 242 106 422 352 524 149 63 252 75 369 45z m-2491 -39 c200
-52 355 -218 403 -431 40 -184 -14 -355 -165 -516 -53 -57 -81 -77 -155 -113
-107 -51 -180 -68 -296 -67 -237 1 -402 106 -510 324 -49 99 -54 115 -58 191
-12 228 138 463 366 573 105 51 299 69 415 39z m1954 -1722 c28 -73 26 -242
-4 -306 -37 -79 -78 -123 -150 -159 l-66 -32 -171 -2 c-104 -1 -234 -9 -331
-22 -241 -31 -294 -34 -387 -22 -104 13 -181 38 -248 82 -90 58 -141 200 -106
293 35 91 148 155 273 155 28 0 106 -12 174 -27 107 -23 148 -26 294 -26 193
0 333 19 550 77 72 19 135 34 142 35 6 1 20 -20 30 -46z"/>
<path d="M7585 6139 c-133 -47 -245 -160 -302 -305 -23 -59 -27 -85 -27 -174
-1 -95 2 -111 28 -167 38 -83 104 -143 214 -196 81 -39 93 -42 172 -42 77 0
92 3 154 34 212 104 324 363 255 587 -19 60 -30 77 -93 140 -130 129 -266 171
-401 123z m219 -173 c26 -8 62 -26 82 -41 113 -87 101 -281 -27 -420 -110
-119 -233 -136 -347 -46 -86 68 -117 168 -88 282 22 88 77 166 146 206 46 28
63 33 120 33 37 0 88 -6 114 -14z"/>
<path d="M7630 5860 c-52 -25 -86 -54 -106 -92 -73 -141 161 -346 274 -240 60
56 88 223 46 279 -49 65 -139 88 -214 53z"/>
<path d="M4973 6061 c-127 -44 -210 -159 -232 -324 -31 -223 73 -446 243 -522
69 -32 129 -39 206 -25 224 41 390 247 391 486 1 197 -84 328 -249 383 -83 28
-281 29 -359 2z m293 -111 c102 -50 173 -158 182 -280 9 -135 -51 -231 -185
-295 -42 -20 -100 -41 -129 -47 -110 -22 -224 43 -281 161 -25 49 -28 67 -28
151 0 79 4 103 23 141 41 84 107 136 227 180 61 23 129 19 191 -11z"/>
<path d="M5130 5878 c-68 -12 -131 -49 -165 -97 -27 -39 -30 -50 -30 -119 1
-89 21 -138 81 -196 90 -87 205 -65 300 57 32 41 39 58 42 108 5 71 -15 134
-61 185 -50 57 -97 75 -167 62z"/>
<path d="M7089 4415 c-10 -9 -186 -35 -317 -46 -103 -8 -219 -8 -465 2 -180 6
-331 9 -335 5 -4 -4 -7 -42 -7 -84 1 -87 20 -135 77 -188 101 -96 312 -132
483 -83 84 24 186 42 358 64 285 35 360 110 285 288 -17 40 -25 47 -48 47 -14
0 -29 -2 -31 -5z"/>
</g>
</svg>
